<?xml version="1.0" encoding="UTF-8"?>
<svg version="1.1" xmlns="http://www.w3.org/2000/svg" width="341" height="537">
<path d="M0 0 C112.53 0 225.06 0 341 0 C341 177.21 341 354.42 341 537 C228.47 537 115.94 537 0 537 C0 359.79 0 182.58 0 0 Z " fill="#FEFEFE" transform="translate(0,0)"/>
<path d="M0 0 C1.45466675 0.02634521 1.45466675 0.02634521 2.9387207 0.05322266 C15.17905301 0.40408961 22.94248619 1.92497908 31.8984375 10.81640625 C38.53386263 18.41430772 39.22159428 25.91791855 39.2578125 35.74609375 C39.31901319 49.19518123 39.78067691 60.51324698 46.1640625 72.49755859 C47.24742827 74.55109495 48.23729049 76.63427744 49.21875 78.73828125 C53.76124199 88.36757732 58.35473366 96.03400753 66.4375 103.0625 C72.34855378 108.29274135 76.61919913 114.1431354 80.99658203 120.67480469 C82.86616325 123.44199952 84.81880584 126.15057705 86.75 128.875 C90.40698847 134.16664939 93.75860255 139.59286924 97.02148438 145.13476562 C98.9887029 148.47108527 101.01918867 151.70965961 103.25 154.875 C107.08051473 160.53750004 109.92167088 166.71606729 112.90966797 172.84667969 C114.3756649 175.81900668 115.87556338 178.77295153 117.37890625 181.7265625 C123.16831783 193.12718616 128.80922247 204.41333339 133.1875 216.4375 C133.72873735 217.8751617 134.27033166 219.31268914 134.8125 220.75 C135.26625 221.966875 135.72 223.18375 136.1875 224.4375 C136.51621094 225.15421875 136.84492188 225.8709375 137.18359375 226.609375 C140.01134306 232.94850532 140.90680842 238.94511022 141.6953125 245.8203125 C142.34259025 250.57729025 143.62000527 254.91527772 145.1875 259.4375 C145.4246875 260.17097656 145.661875 260.90445312 145.90625 261.66015625 C147.56548293 266.77311861 149.41030563 271.81174029 151.2890625 276.84765625 C152.05872598 279.0662949 152.62075795 281.21188277 153.125 283.5 C153.87173766 286.60710651 153.87173766 286.60710651 156.5 287.625 C157.386875 287.893125 158.27375 288.16125 159.1875 288.4375 C164.09280796 291.66782475 166.96832553 295.67705927 168.7890625 301.29296875 C169.28770572 303.97684253 169.31950781 306.52045942 169.3125 309.25 C169.31507813 310.24644531 169.31765625 311.24289062 169.3203125 312.26953125 C169.1875 315.4375 169.1875 315.4375 168.48828125 318.796875 C168.09655412 323.53829948 169.39298712 326.5782807 171.25 330.875 C171.90188169 332.46580187 172.55290603 334.0569553 173.203125 335.6484375 C173.70102539 336.84484863 173.70102539 336.84484863 174.20898438 338.06542969 C175.70270762 341.68644141 177.11507172 345.33617552 178.5 349 C178.87572144 349.99350464 178.87572144 349.99350464 179.2590332 351.00708008 C181.0290766 355.78553113 182.22093689 360.44359059 183.1875 365.4375 C183.5175 366.406875 183.8475 367.37625 184.1875 368.375 C185.03807982 370.97990069 185.49173369 373.26552913 185.91796875 375.953125 C187.09672957 381.95196183 189.63954591 386.89089399 192.5 392.25 C198.57856936 403.99508185 198.57856936 403.99508185 200.6875 409.875 C202.86322317 415.90732995 205.58731313 421.60794604 208.375 427.375 C209.08233276 428.84900269 209.08233276 428.84900269 209.80395508 430.3527832 C211.74040381 434.38424519 213.67911026 438.41351051 215.66796875 442.41943359 C226.06636935 463.37304714 226.06636935 463.37304714 224.1875 474.4375 C216.41290805 473.30425439 212.78750848 467.35350273 208.27954102 461.39501953 C203.48878482 454.93128764 199.08680903 448.27607576 194.88745117 441.41577148 C192.10747956 436.8751695 189.19114366 432.45749 186.1875 428.0625 C181.02688181 420.46010259 176.66042712 412.46607299 172.265625 404.40527344 C169.15600476 398.72965317 166.08623413 393.31750804 161.8125 388.4375 C159.1875 385.4375 159.1875 385.4375 159.1875 383.4375 C158.63964844 383.25058594 158.09179688 383.06367188 157.52734375 382.87109375 C154.09869901 380.7704049 152.07594206 377.70354734 149.75 374.5 C148.9775293 373.45428833 148.9775293 373.45428833 148.18945312 372.38745117 C143.49024897 365.9726982 138.99394145 359.4179533 134.55297852 352.82250977 C132.42875899 349.67241344 130.33643481 346.61822124 127.91796875 343.68359375 C126.13149798 341.36481115 125.44324562 339.4298141 124.5 336.6875 C123.36949785 334.21070754 123.36949785 334.21070754 121.1875 332.4375 C116.88147313 331.61415948 112.87725371 331.48606669 108.51171875 331.53515625 C104.80361725 331.55885152 101.65284328 330.90962712 98.09594727 329.91625977 C95.18954748 329.18715014 92.29723663 329.04003838 89.3125 328.875 C83.38907068 328.53828534 83.38907068 328.53828534 81.1875 327.4375 C79.47338303 327.22849675 77.75299635 327.0696697 76.03125 326.9375 C75.00902344 326.855 73.98679688 326.7725 72.93359375 326.6875 C71.86238281 326.605 70.79117188 326.5225 69.6875 326.4375 C67.57262152 326.27462127 65.45801686 326.1081344 63.34375 325.9375 C62.40337891 325.8653125 61.46300781 325.793125 60.49414062 325.71875 C58.1875 325.4375 58.1875 325.4375 56.1875 324.4375 C54.55382473 324.3083392 52.91553258 324.23516397 51.27734375 324.19140625 C50.28669922 324.15853516 49.29605469 324.12566406 48.27539062 324.09179688 C46.20256216 324.03139828 44.12964301 323.97402315 42.05664062 323.91992188 C36.56205145 323.73216351 31.55369029 323.18590933 26.22241211 321.85864258 C22.02761117 320.99049241 17.76871552 321.46462701 13.51953125 321.66015625 C9.71678186 321.40604521 7.53801204 320.18190773 4.1875 318.4375 C1.33198882 317.9790497 1.33198882 317.9790497 -1.5625 317.9375 C-10.72426664 317.26933655 -16.6214161 316.51539755 -22.9375 309.3125 C-28.07942173 301.80018882 -28.39182477 294.2668492 -26.8125 285.4375 C-24.61991 277.45976642 -19.43661053 272.17238114 -12.8125 267.4375 C-7.79220969 264.82276546 -3.22276031 265.41727948 2.1875 266.4375 C3.1775 266.7675 4.1675 267.0975 5.1875 267.4375 C7.92615287 267.50801114 10.63777588 267.53107765 13.375 267.5 C14.49938477 267.49323242 14.49938477 267.49323242 15.64648438 267.48632812 C17.49352383 267.47456354 19.34052213 267.45662865 21.1875 267.4375 C21.1875 266.7775 21.1875 266.1175 21.1875 265.4375 C20.30449219 265.025 19.42148438 264.6125 18.51171875 264.1875 C7.00999361 258.70005416 -2.45194247 251.62170556 -12.23828125 243.46875 C-14.49217282 241.69026196 -16.71491726 240.19736551 -19.1875 238.75 C-22.98407112 236.50304974 -25.13408051 233.93432544 -27.8125 230.4375 C-28.43511719 229.82519531 -29.05773437 229.21289062 -29.69921875 228.58203125 C-31.99701316 226.25025836 -33.92546976 223.81692421 -35.875 221.1875 C-36.88240234 219.84945312 -36.88240234 219.84945312 -37.91015625 218.484375 C-39.76437878 215.514573 -40.87775406 212.79760362 -42.02856445 209.52099609 C-43.61984387 205.2917907 -45.84021468 201.34394015 -47.93945312 197.34960938 C-50.88133612 191.62711864 -52.84927021 186.0278578 -53.375 179.5625 C-53.42349667 176.70368348 -53.42349667 176.70368348 -54.8125 174.4375 C-55.03187909 170.41346061 -54.99828822 166.38596327 -54.99780273 162.35644531 C-54.99996874 160.34157538 -55.01806009 158.32727143 -55.03710938 156.3125 C-55.03904297 155.03117188 -55.04097656 153.74984375 -55.04296875 152.4296875 C-55.04707764 151.25776855 -55.05118652 150.08584961 -55.05541992 148.87841797 C-54.79312551 145.1630637 -53.90036845 141.99014872 -52.8125 138.4375 C-52.58111141 136.00529044 -52.41560517 133.56601482 -52.3125 131.125 C-51.55831364 118.27869226 -47.85190137 106.76176522 -43.890625 94.609375 C-42.49734164 90.2020501 -41.54308161 85.95366276 -40.875 81.375 C-39.88980858 74.93400065 -37.50890885 69.74549726 -34.5625 64 C-33.19070272 59.31302595 -32.79012466 53.7268189 -34.80859375 49.20703125 C-36.26687587 45.18398835 -36.14152128 41.37096905 -36.125 37.125 C-36.14916992 35.90006836 -36.14916992 35.90006836 -36.17382812 34.65039062 C-36.18148724 25.03820591 -32.58676862 16.56696585 -26.02734375 9.51953125 C-18.20546935 2.22637202 -10.60383821 -0.26000195 0 0 Z " fill="#AFC12B" transform="translate(86.8125,20.5625)"/>
<path d="M0 0 C2.49287402 0.53126823 4.97132465 1.1369709 7.42578125 1.82421875 C12.19962359 3.02637662 16.90868777 3.2567143 21.8125 3.4375 C22.68261719 3.47617187 23.55273438 3.51484375 24.44921875 3.5546875 C26.57000486 3.64790887 28.69122185 3.73124136 30.8125 3.8125 C30.33039063 4.74191406 29.84828125 5.67132813 29.3515625 6.62890625 C28.71321567 7.87743755 28.07521322 9.12614495 27.4375 10.375 C26.96183594 11.28862305 26.96183594 11.28862305 26.4765625 12.22070312 C23.4647937 18.15012295 21.52447172 23.83149486 21.5625 30.5625 C21.55734375 31.48546875 21.5521875 32.4084375 21.546875 33.359375 C21.64907307 36.06775738 21.64907307 36.06775738 23.8125 38.8125 C26.39630177 39.06280977 26.39630177 39.06280977 28.8125 38.8125 C28.84988281 38.23242188 28.88726562 37.65234375 28.92578125 37.0546875 C29.35153667 31.99571136 30.18388991 28.26970842 32.8125 23.8125 C33.4725 23.8125 34.1325 23.8125 34.8125 23.8125 C34.83986707 25.20822052 34.85905989 26.60410221 34.875 28 C34.88660156 28.77730469 34.89820313 29.55460937 34.91015625 30.35546875 C34.8125 32.8125 34.8125 32.8125 34.3125 35.15625 C33.68006343 38.51606929 33.71807284 41.70879417 33.75 45.125 C33.75902344 46.37925781 33.76804688 47.63351562 33.77734375 48.92578125 C33.78894531 49.87839844 33.80054688 50.83101563 33.8125 51.8125 C36.4525 51.8125 39.0925 51.8125 41.8125 51.8125 C41.84988281 50.84570312 41.88726562 49.87890625 41.92578125 48.8828125 C42.26428022 42.17920548 42.72325209 35.95595083 44.91796875 29.56640625 C46.34743543 25.16564637 47.37058678 20.664507 48.4543457 16.16821289 C49.7124263 11.0126474 49.7124263 11.0126474 50.8125 8.8125 C56.44596664 8.68672706 62.07857584 8.59716293 67.71313477 8.5378418 C69.62050651 8.51305412 71.5277871 8.47921291 73.43481445 8.43530273 C87.87335655 8.11173931 106.94233134 7.87876055 118.4375 18.203125 C123.27316039 23.86304568 124.95637464 29.27332885 124.9375 36.625 C124.94007813 37.62144531 124.94265625 38.61789062 124.9453125 39.64453125 C124.8125 42.8125 124.8125 42.8125 124.11328125 46.171875 C123.72155412 50.91329948 125.01798712 53.9532807 126.875 58.25 C127.52688169 59.84080187 128.17790603 61.4319553 128.828125 63.0234375 C129.32602539 64.21984863 129.32602539 64.21984863 129.83398438 65.44042969 C131.32770762 69.06144141 132.74007172 72.71117552 134.125 76.375 C134.50072144 77.36850464 134.50072144 77.36850464 134.8840332 78.38208008 C136.6540766 83.16053113 137.84593689 87.81859059 138.8125 92.8125 C139.1425 93.781875 139.4725 94.75125 139.8125 95.75 C140.66307982 98.35490069 141.11673369 100.64052913 141.54296875 103.328125 C142.72172957 109.32696183 145.26454591 114.26589399 148.125 119.625 C154.20356936 131.37008185 154.20356936 131.37008185 156.3125 137.25 C158.48822317 143.28232995 161.21231313 148.98294604 164 154.75 C164.70733276 156.22400269 164.70733276 156.22400269 165.42895508 157.7277832 C167.36540381 161.75924519 169.30411026 165.78851051 171.29296875 169.79443359 C181.69136935 190.74804714 181.69136935 190.74804714 179.8125 201.8125 C172.03790805 200.67925439 168.41250848 194.72850273 163.90454102 188.77001953 C159.11378482 182.30628764 154.71180903 175.65107576 150.51245117 168.79077148 C147.73247956 164.2501695 144.81614366 159.83249 141.8125 155.4375 C136.65188181 147.83510259 132.28542712 139.84107299 127.890625 131.78027344 C124.78100476 126.10465317 121.71123413 120.69250804 117.4375 115.8125 C114.8125 112.8125 114.8125 112.8125 114.8125 110.8125 C114.26464844 110.62558594 113.71679688 110.43867188 113.15234375 110.24609375 C109.72369901 108.1454049 107.70094206 105.07854734 105.375 101.875 C104.6025293 100.82928833 104.6025293 100.82928833 103.81445312 99.76245117 C99.11524897 93.3476982 94.61894145 86.7929533 90.17797852 80.19750977 C88.05375899 77.04741344 85.96143481 73.99322124 83.54296875 71.05859375 C81.75649798 68.73981115 81.06824562 66.8048141 80.125 64.0625 C78.99449785 61.58570754 78.99449785 61.58570754 76.8125 59.8125 C72.50647313 58.98915948 68.50225371 58.86106669 64.13671875 58.91015625 C60.42861725 58.93385152 57.27784328 58.28462712 53.72094727 57.29125977 C50.81454748 56.56215014 47.92223663 56.41503838 44.9375 56.25 C39.01407068 55.91328534 39.01407068 55.91328534 36.8125 54.8125 C35.09838303 54.60349675 33.37799635 54.4446697 31.65625 54.3125 C30.63402344 54.23 29.61179688 54.1475 28.55859375 54.0625 C27.48738281 53.98 26.41617188 53.8975 25.3125 53.8125 C23.19762152 53.64962127 21.08301686 53.4831344 18.96875 53.3125 C18.02837891 53.2403125 17.08800781 53.168125 16.11914062 53.09375 C13.8125 52.8125 13.8125 52.8125 11.8125 51.8125 C10.27239974 51.6950794 8.72783011 51.63366353 7.18359375 51.6015625 C5.76542358 51.56180298 5.76542358 51.56180298 4.31860352 51.52124023 C3.30596436 51.49360596 2.2933252 51.46597168 1.25 51.4375 C-8.79699446 51.09795208 -18.36633727 49.90856023 -28.1875 47.8125 C-27.5946587 44.56209425 -26.85455132 41.68295398 -25.1875 38.8125 C-23.125 38.00390625 -23.125 38.00390625 -20.75 37.5625 C-18.30672524 37.09553265 -18.30672524 37.09553265 -16.1875 35.8125 C-14.06129161 31.66639363 -13.1270885 27.35649864 -12.1875 22.8125 C-12.01089844 21.9978125 -11.83429688 21.183125 -11.65234375 20.34375 C-11.34601235 18.92278416 -11.04382623 17.5009174 -10.74609375 16.078125 C-6.68505073 -0.39323828 -6.68505073 -0.39323828 0 0 Z " fill="#8A4735" transform="translate(131.1875,293.1875)"/>
<path d="M0 0 C1.45466675 0.02634521 1.45466675 0.02634521 2.9387207 0.05322266 C15.17905301 0.40408961 22.94248619 1.92497908 31.8984375 10.81640625 C38.53386263 18.41430772 39.22159428 25.91791855 39.2578125 35.74609375 C39.33373601 51.70119577 40.83597713 63.4922013 48.8671875 77.33203125 C51.4154658 81.8156236 52.68889188 84.42355012 51.375 89.5625 C49.44011331 94.51239085 46.79598558 98.55342602 43.1875 102.4375 C42.71957031 102.96730469 42.25164062 103.49710937 41.76953125 104.04296875 C36.99892892 108.42113079 31.20589427 108.32194115 24.99609375 108.125 C16.68541139 106.62481529 11.09880904 101.00406176 6.1875 94.4375 C5.8575 93.7775 5.5275 93.1175 5.1875 92.4375 C1.82713687 92.73816407 0.435669 93.19678484 -2.0234375 95.58203125 C-3.09464844 96.90267578 -3.09464844 96.90267578 -4.1875 98.25 C-7.86968994 102.52963135 -10.71251735 105.07639692 -15.8125 107.4375 C-17.42125 108.30375 -17.42125 108.30375 -19.0625 109.1875 C-24.07627419 110.85875806 -28.58069109 111.28974037 -33.8125 110.4375 C-37.1942565 108.71587851 -39.27260573 106.17735511 -41.5 103.125 C-41.933125 102.568125 -42.36625 102.01125 -42.8125 101.4375 C-43.8025 101.4375 -44.7925 101.4375 -45.8125 101.4375 C-45.53986328 100.50744141 -45.53986328 100.50744141 -45.26171875 99.55859375 C-43.68591949 94.00693173 -42.4177006 88.49006203 -41.375 82.8125 C-40.22751917 76.86975719 -38.59184076 71.79512283 -35.8125 66.4375 C-33.34248702 61.62097469 -33.24729256 56.75709945 -33.8125 51.4375 C-34.30556641 50.33341797 -34.30556641 50.33341797 -34.80859375 49.20703125 C-36.26687587 45.18398835 -36.14152128 41.37096905 -36.125 37.125 C-36.14916992 35.90006836 -36.14916992 35.90006836 -36.17382812 34.65039062 C-36.18148724 25.03820591 -32.58676862 16.56696585 -26.02734375 9.51953125 C-18.20546935 2.22637202 -10.60383821 -0.26000195 0 0 Z " fill="#F5D057" transform="translate(86.8125,20.5625)"/>
<path d="M0 0 C4.26215932 0.61333512 6.47864329 2.68143829 9.453125 5.5859375 C10.01741211 6.1229126 10.58169922 6.6598877 11.16308594 7.21313477 C16.57138058 12.52589 20.86728844 18.43085409 25.04443359 24.73046875 C26.89427596 27.49314947 28.84171406 30.18701897 30.765625 32.8984375 C34.42261347 38.19008689 37.77422755 43.61630674 41.03710938 49.15820312 C43.0043279 52.49452277 45.03481367 55.73309711 47.265625 58.8984375 C51.09613973 64.56093754 53.93729588 70.73950479 56.92529297 76.87011719 C58.3912899 79.84244418 59.89118838 82.79638903 61.39453125 85.75 C67.18394283 97.15062366 72.82484747 108.43677089 77.203125 120.4609375 C77.74436235 121.8985992 78.28595666 123.33612664 78.828125 124.7734375 C79.50875 126.59875 79.50875 126.59875 80.203125 128.4609375 C80.5434375 129.2240625 80.88375 129.9871875 81.234375 130.7734375 C83.96807903 137.02190386 84.94436508 142.65555149 85.203125 149.4609375 C83.883125 149.4609375 82.563125 149.4609375 81.203125 149.4609375 C79.44467845 147.11036099 77.94869689 144.84453503 76.453125 142.3359375 C72.67330713 136.32579666 69.22812775 132.2995475 63.203125 128.4609375 C60.82005801 126.51363133 58.51959724 124.48785071 56.203125 122.4609375 C56.85410156 122.09484375 57.50507813 121.72875 58.17578125 121.3515625 C60.482463 119.58291846 60.482463 119.58291846 60.69921875 116.5703125 C60.58578215 110.06661407 60.35612141 105.1830421 57.203125 99.4609375 C56.708125 98.3471875 56.213125 97.2334375 55.703125 96.0859375 C54.4196699 93.16267754 54.4196699 93.16267754 51.203125 92.4609375 C51.62464844 93.43933594 52.04617187 94.41773438 52.48046875 95.42578125 C55.45235888 102.48109523 57.93111994 108.70879335 58.203125 116.4609375 C55.96484375 117.16796875 55.96484375 117.16796875 53.203125 117.4609375 C49.09239935 114.99450211 45.87640729 111.42443035 44.31640625 106.875 C43.99567923 105.16616642 43.72313739 103.44745066 43.50390625 101.72265625 C43.27995417 99.29850067 43.27995417 99.29850067 42.015625 96.5859375 C41.02038417 93.98299994 41.16253852 93.02238115 42.203125 90.4609375 C43.640625 87.7109375 43.640625 87.7109375 45.203125 85.4609375 C45.863125 85.4609375 46.523125 85.4609375 47.203125 85.4609375 C47.203125 84.1409375 47.203125 82.8209375 47.203125 81.4609375 C46.543125 81.4609375 45.883125 81.4609375 45.203125 81.4609375 C44.708125 83.4409375 44.708125 83.4409375 44.203125 85.4609375 C41.828125 86.0859375 41.828125 86.0859375 39.203125 86.4609375 C36.59895075 83.85676325 36.05324426 82.0575959 35.203125 78.4609375 C35.32703589 75.42264254 35.70997255 72.45983751 36.203125 69.4609375 C35.31625 70.1415625 34.429375 70.8221875 33.515625 71.5234375 C30.203125 73.4609375 30.203125 73.4609375 27.640625 73.6484375 C23.97747594 71.86382642 22.29476154 68.86986003 20.203125 65.4609375 C18.90459466 68.3019824 18.90459466 68.3019824 19.953125 70.43359375 C22.80732825 75.27499072 22.80732825 75.27499072 27.828125 77.6484375 C28.941875 77.9165625 30.055625 78.1846875 31.203125 78.4609375 C36.96459012 86.41030077 40.04160092 96.73461677 39.203125 106.4609375 C34.99003025 107.42643838 34.99003025 107.42643838 32.203125 106.4609375 C26.75708354 100.60115084 23.05544373 95.34297693 23.140625 87.3359375 C23.14964844 86.24023438 23.15867188 85.14453125 23.16796875 84.015625 C23.17957031 83.17257813 23.19117188 82.32953125 23.203125 81.4609375 C22.213125 81.4609375 21.223125 81.4609375 20.203125 81.4609375 C19.873125 85.0909375 19.543125 88.7209375 19.203125 92.4609375 C14.203125 91.4609375 14.203125 91.4609375 12.8046875 89.8515625 C9.63737533 82.90881421 10.1437315 76.91123741 11.203125 69.4609375 C9.718125 69.9559375 9.718125 69.9559375 8.203125 70.4609375 C6.48744839 73.96388621 6.48744839 73.96388621 5.203125 77.4609375 C3.883125 77.4609375 2.563125 77.4609375 1.203125 77.4609375 C-0.68102142 74.26636399 -1.03507237 71.94591121 -0.9921875 68.2578125 C-0.98574219 67.278125 -0.97929687 66.2984375 -0.97265625 65.2890625 C-0.95589844 64.27328125 -0.93914062 63.2575 -0.921875 62.2109375 C-0.91285156 61.1796875 -0.90382812 60.1484375 -0.89453125 59.0859375 C-0.87099511 56.54403463 -0.83811523 54.0026047 -0.796875 51.4609375 C2.953125 50.3359375 2.953125 50.3359375 5.203125 51.4609375 C9.24606267 51.8534313 9.24606267 51.8534313 13.203125 51.4609375 C16.11112283 48.9164394 17.11014557 47.50695613 17.453125 43.6484375 C17.370625 42.9265625 17.288125 42.2046875 17.203125 41.4609375 C16.543125 41.4609375 15.883125 41.4609375 15.203125 41.4609375 C14.77 42.2859375 14.336875 43.1109375 13.890625 43.9609375 C12.203125 46.4609375 12.203125 46.4609375 9.703125 47.0234375 C7.203125 46.4609375 7.203125 46.4609375 5.453125 44.9609375 C3.70156706 41.45782163 3.52797232 38.35910539 3.203125 34.4609375 C1.718125 34.9559375 1.718125 34.9559375 0.203125 35.4609375 C0.24953125 36.06421875 0.2959375 36.6675 0.34375 37.2890625 C0.63817032 43.80836952 0.63817032 43.80836952 -1.546875 47.0859375 C-3.796875 48.4609375 -3.796875 48.4609375 -5.921875 48.5234375 C-7.796875 47.4609375 -7.796875 47.4609375 -9.046875 45.4609375 C-10.84687511 38.26093705 -9.66918191 31.53223948 -7.796875 24.4609375 C-8.786875 24.4609375 -9.776875 24.4609375 -10.796875 24.4609375 C-12.264471 28.86372551 -12.18410745 33.15936544 -12.296875 37.7734375 C-12.35101563 38.71123047 -12.40515625 39.64902344 -12.4609375 40.61523438 C-12.62050425 45.92243297 -12.62050425 45.92243297 -10.203125 50.46630859 C-8.46562728 51.95728131 -6.74207776 53.25710798 -4.796875 54.4609375 C-4.961875 55.1209375 -5.126875 55.7809375 -5.296875 56.4609375 C-6.58825821 64.20923674 -5.68071644 71.15367393 -2.796875 78.4609375 C-0.45837299 81.35329525 1.88592492 83.21926125 4.828125 85.4609375 C7.36387053 87.59630216 8.72707241 89.50883231 10.203125 92.4609375 C10.203125 93.1209375 10.203125 93.7809375 10.203125 94.4609375 C9.543125 94.4609375 8.883125 94.4609375 8.203125 94.4609375 C8.203125 93.8009375 8.203125 93.1409375 8.203125 92.4609375 C7.543125 92.4609375 6.883125 92.4609375 6.203125 92.4609375 C4.6171875 90.88671875 4.6171875 90.88671875 2.828125 88.7734375 C1.95027344 87.74669922 1.95027344 87.74669922 1.0546875 86.69921875 C0.44367188 85.96058594 -0.16734375 85.22195312 -0.796875 84.4609375 C-1.47878906 83.67074219 -2.16070312 82.88054687 -2.86328125 82.06640625 C-4.93152632 79.27949824 -6.11077558 76.69163699 -7.359375 73.4609375 C-8.50873692 70.5065121 -9.57755309 67.80550376 -11.28125 65.12890625 C-13.34191592 61.50149691 -14.38568536 57.78228236 -15.484375 53.7734375 C-15.70496582 52.97486328 -15.92555664 52.17628906 -16.15283203 51.35351562 C-19.63086769 38.12892289 -19.63086769 38.12892289 -16.796875 32.4609375 C-16.55410696 30.33744838 -16.32762211 28.21208673 -16.109375 26.0859375 C-14.88351141 17.24155871 -11.77839034 9.44801267 -5.796875 2.7109375 C-2.796875 0.4609375 -2.796875 0.4609375 0 0 Z " fill="#3B3831" transform="translate(142.796875,116.5390625)"/>
<path d="M0 0 C2.49287402 0.53126823 4.97132465 1.1369709 7.42578125 1.82421875 C12.19962359 3.02637662 16.90868777 3.2567143 21.8125 3.4375 C22.68261719 3.47617187 23.55273438 3.51484375 24.44921875 3.5546875 C26.57000486 3.64790887 28.69122185 3.73124136 30.8125 3.8125 C30.33039063 4.74191406 29.84828125 5.67132813 29.3515625 6.62890625 C28.71321567 7.87743755 28.07521322 9.12614495 27.4375 10.375 C26.96183594 11.28862305 26.96183594 11.28862305 26.4765625 12.22070312 C23.4647937 18.15012295 21.52447172 23.83149486 21.5625 30.5625 C21.55734375 31.48546875 21.5521875 32.4084375 21.546875 33.359375 C21.64907307 36.06775738 21.64907307 36.06775738 23.8125 38.8125 C26.39630177 39.06280977 26.39630177 39.06280977 28.8125 38.8125 C28.84988281 38.23242188 28.88726562 37.65234375 28.92578125 37.0546875 C29.35153667 31.99571136 30.18388991 28.26970842 32.8125 23.8125 C33.4725 23.8125 34.1325 23.8125 34.8125 23.8125 C34.83986707 25.20822052 34.85905989 26.60410221 34.875 28 C34.88660156 28.77730469 34.89820313 29.55460937 34.91015625 30.35546875 C34.8125 32.8125 34.8125 32.8125 34.3125 35.15625 C33.68006343 38.51606929 33.71807284 41.70879417 33.75 45.125 C33.75902344 46.37925781 33.76804688 47.63351562 33.77734375 48.92578125 C33.78894531 49.87839844 33.80054688 50.83101563 33.8125 51.8125 C36.4525 51.8125 39.0925 51.8125 41.8125 51.8125 C41.84988281 50.84570312 41.88726562 49.87890625 41.92578125 48.8828125 C42.26428022 42.17920548 42.72325209 35.95595083 44.91796875 29.56640625 C46.34743543 25.16564637 47.37058678 20.664507 48.4543457 16.16821289 C49.7124263 11.0126474 49.7124263 11.0126474 50.8125 8.8125 C56.50092661 8.71224302 62.18881844 8.64038903 67.87792969 8.59277344 C69.8057554 8.57288572 71.73352267 8.54576561 73.66113281 8.51074219 C86.02176753 8.29208372 96.99231464 9.05730501 108.8125 12.8125 C108.8125 13.8025 108.8125 14.7925 108.8125 15.8125 C107.74 15.915625 106.6675 16.01875 105.5625 16.125 C101.88874166 16.79852236 100.56092404 17.47124989 97.8125 19.8125 C97.1525 19.8125 96.4925 19.8125 95.8125 19.8125 C90.6951425 29.78022243 89.16073962 39.29616973 92 50.3125 C93.39384782 54.43459024 95.00435427 56.52761256 98.8125 58.8125 C99.8025 59.4725 100.7925 60.1325 101.8125 60.8125 C98.85410645 60.83939449 95.89595573 60.85928741 92.9375 60.875 C92.09574219 60.88337891 91.25398438 60.89175781 90.38671875 60.90039062 C89.58105469 60.90361328 88.77539062 60.90683594 87.9453125 60.91015625 C86.82987061 60.91801147 86.82987061 60.91801147 85.69189453 60.92602539 C83.8125 60.8125 83.8125 60.8125 81.8125 59.8125 C80.24010894 59.68373128 78.66298251 59.61027049 77.0859375 59.56640625 C76.13589844 59.53353516 75.18585938 59.50066406 74.20703125 59.46679688 C72.21754236 59.40631435 70.22795599 59.34894616 68.23828125 59.29492188 C62.4329491 59.08786763 57.41196035 58.31823724 51.8125 56.8125 C49.52612804 56.56878782 47.23331734 56.37694519 44.9375 56.25 C39.01407068 55.91328534 39.01407068 55.91328534 36.8125 54.8125 C35.09838303 54.60349675 33.37799635 54.4446697 31.65625 54.3125 C30.63402344 54.23 29.61179688 54.1475 28.55859375 54.0625 C27.48738281 53.98 26.41617188 53.8975 25.3125 53.8125 C23.19762152 53.64962127 21.08301686 53.4831344 18.96875 53.3125 C18.02837891 53.2403125 17.08800781 53.168125 16.11914062 53.09375 C13.8125 52.8125 13.8125 52.8125 11.8125 51.8125 C10.27239974 51.6950794 8.72783011 51.63366353 7.18359375 51.6015625 C5.76542358 51.56180298 5.76542358 51.56180298 4.31860352 51.52124023 C3.30596436 51.49360596 2.2933252 51.46597168 1.25 51.4375 C-8.79699446 51.09795208 -18.36633727 49.90856023 -28.1875 47.8125 C-27.5946587 44.56209425 -26.85455132 41.68295398 -25.1875 38.8125 C-23.125 38.00390625 -23.125 38.00390625 -20.75 37.5625 C-18.30672524 37.09553265 -18.30672524 37.09553265 -16.1875 35.8125 C-14.06129161 31.66639363 -13.1270885 27.35649864 -12.1875 22.8125 C-12.01089844 21.9978125 -11.83429688 21.183125 -11.65234375 20.34375 C-11.34601235 18.92278416 -11.04382623 17.5009174 -10.74609375 16.078125 C-6.68505073 -0.39323828 -6.68505073 -0.39323828 0 0 Z " fill="#8C4936" transform="translate(131.1875,293.1875)"/>
<path d="M0 0 C4.17676988 1.04419247 4.58075254 1.27538579 7 4.4375 C9.10826704 7.18168455 10.69038163 8.85657282 14 10 C16.33203812 10.0777346 18.66839059 10.08967728 21 10 C26.4990138 20.06274452 31.63019251 30.11529954 35.96337891 40.73632812 C38.40861339 46.69438331 41.08048205 52.5106616 43.875 58.3125 C44.2879834 59.17794434 44.7009668 60.04338867 45.12646484 60.93505859 C46.87074211 64.58732861 48.62048416 68.2353565 50.41992188 71.86083984 C60.87851015 92.93766242 60.87851015 92.93766242 59 104 C51.22540805 102.86675439 47.60000848 96.91600273 43.09204102 90.95751953 C38.30128482 84.49378764 33.89930903 77.83857576 29.69995117 70.97827148 C26.91997956 66.4376695 24.00364366 62.01999 21 57.625 C15.84034724 50.02402481 11.47583176 42.03176244 7.08251953 33.97216797 C4.10571935 28.54894021 1.15464382 23.21434653 -2.875 18.5 C-5 16 -5 16 -5 14 C-3.35 13.34 -1.7 12.68 0 12 C0 8.04 0 4.08 0 0 Z " fill="#393836" transform="translate(252,391)"/>
<path d="M0 0 C2.56634861 0.22718496 5.11678107 0.41608184 7.6875 0.5625 C8.38939453 0.60568359 9.09128906 0.64886719 9.81445312 0.69335938 C11.54275206 0.7991736 13.2713511 0.90006581 15 1 C14.18595703 2.54107422 14.18595703 2.54107422 13.35546875 4.11328125 C12.63226069 5.51273581 11.90963603 6.91249196 11.1875 8.3125 C10.83107422 8.98345703 10.47464844 9.65441406 10.10742188 10.34570312 C5.16054323 20.01253937 3.55460708 29.40335887 3.3125 40.1875 C3.27833984 41.23486328 3.24417969 42.28222656 3.20898438 43.36132812 C3.12760165 45.90744469 3.05810653 48.45326444 3 51 C-19.33029137 50.19655279 -19.33029137 50.19655279 -25.60546875 44.73046875 C-31.40347661 38.15939318 -33.11701968 32.77687923 -32.79125977 24.15991211 C-32.06710269 15.35579112 -28.96621204 9.56838253 -22.5625 3.5 C-15.26409542 -2.45174674 -8.80004666 -2.93334889 0 0 Z " fill="#8C4836" transform="translate(92,288)"/>
<path d="M0 0 C2.86407769 2.86407769 3.8466736 6.39961717 5.25 10.125 C5.55574951 10.92671631 5.86149902 11.72843262 6.17651367 12.55444336 C6.80990067 14.21788231 7.44097906 15.88220202 8.06982422 17.54736328 C8.94219933 19.84759434 9.82963445 22.14131487 10.72265625 24.43359375 C13.34965042 31.22579796 15.61234552 37.83045186 17 45 C17.5259375 46.485 17.5259375 46.485 18.0625 48 C19.2996065 51.95874081 19.6520949 55.8800712 20 60 C15.86584893 60.99219626 13.74028303 61.37014151 9.875 59.4375 C7.68912849 57.58426111 6.08262388 56.00005607 4.3125 53.8125 C2.24098294 50.78480031 2.24098294 50.78480031 -1 50 C-0.67 50.66 -0.34 51.32 0 52 C0.12082534 53.66345582 0.1753794 55.33220591 0.1875 57 C0.20167969 57.886875 0.21585938 58.77375 0.23046875 59.6875 C0 62 0 62 -2 64 C-4.625 64.625 -4.625 64.625 -7 65 C-7 64.34 -7 63.68 -7 63 C-7.82177734 62.71962891 -7.82177734 62.71962891 -8.66015625 62.43359375 C-12.08880099 60.3329049 -14.11155794 57.26604734 -16.4375 54.0625 C-16.95248047 53.36535889 -17.46746094 52.66821777 -17.99804688 51.94995117 C-22.69725103 45.5351982 -27.19355855 38.9804533 -31.63452148 32.38500977 C-34.28342402 28.45683847 -36.96192212 24.64423285 -40 21 C-39.67 20.34 -39.34 19.68 -39 19 C-32.32830189 23.49056604 -32.32830189 23.49056604 -30.1875 26.8125 C-28.26154501 29.22913197 -28.26154501 29.22913197 -25.8515625 29.1015625 C-24.59472656 29.02035156 -24.59472656 29.02035156 -23.3125 28.9375 C-18.16294627 28.71788668 -15.24308444 29.82944584 -11.109375 32.87109375 C-7.73293973 36.27879231 -5.6119795 40.25640819 -3.41015625 44.48828125 C-2.24695379 47.1102657 -2.24695379 47.1102657 0 48 C-0.45445964 46.58208592 -0.91374944 45.16571954 -1.375 43.75 C-1.63023437 42.96109375 -1.88546875 42.1721875 -2.1484375 41.359375 C-2.91960939 39.0120872 -2.91960939 39.0120872 -4.109375 37.0546875 C-5.2822341 34.34888098 -5.05292221 32.30684857 -4.875 29.375 C-4.73197473 23.80382535 -5.84352539 20.05995163 -8.41796875 15.15625 C-9 13 -9 13 -7.73828125 10.71875 C-6 9 -6 9 -4 9 C-3.71125 8.2575 -3.4225 7.515 -3.125 6.75 C-2.17697356 4.43260203 -1.15154089 2.22082885 0 0 Z " fill="#AEC02F" transform="translate(253,341)"/>
<path d="M0 0 C0.99 0 1.98 0 3 0 C2.835 1.299375 2.67 2.59875 2.5 3.9375 C1.32951429 13.72240769 1.32951429 13.72240769 4 23 C6.86724686 22.42655063 7.8614515 22.1385485 10 20 C10.24253813 17.78927023 10.24253813 17.78927023 10.125 15.375 C10.10695312 14.55773437 10.08890625 13.74046875 10.0703125 12.8984375 C10.04710937 12.27195313 10.02390625 11.64546875 10 11 C11.32 10.67 12.64 10.34 14 10 C14.22042969 11.04800781 14.22042969 11.04800781 14.4453125 12.1171875 C15.12586437 14.87850714 15.82771194 17.40636635 17 20 C20.01773585 21.76097486 20.01773585 21.76097486 23 22 C23.66 20.35 24.32 18.7 25 17 C26.32 17 27.64 17 29 17 C28.71860476 20.65813817 28.43656214 23.31896306 26.4375 26.4375 C21.62439827 29.52282162 16.28715409 28.08271413 11 27 C10.94185915 30.58326501 10.90635643 34.16640838 10.875 37.75 C10.85824219 38.76578125 10.84148437 39.7815625 10.82421875 40.828125 C10.81455078 42.29765625 10.81455078 42.29765625 10.8046875 43.796875 C10.78897705 45.14797363 10.78897705 45.14797363 10.77294922 46.52636719 C11.01278324 49.13926856 11.67687936 50.75664666 13 53 C14.485 52.505 14.485 52.505 16 52 C17.71567661 48.49705129 17.71567661 48.49705129 19 45 C19.99 45 20.98 45 22 45 C21.93039063 46.25103516 21.93039063 46.25103516 21.859375 47.52734375 C21.63660165 54.47309871 21.50214087 61.28050012 26 67 C27.32 67.33 28.64 67.66 30 68 C30.33 64.37 30.66 60.74 31 57 C31.99 57 32.98 57 34 57 C33.99097656 57.73863281 33.98195312 58.47726563 33.97265625 59.23828125 C34.22419574 67.84530635 36.78818853 74.78818853 43 81 C45.32817964 81.36760731 47.6618385 81.70241581 50 82 C48.88833855 72.9407888 46.85896825 64.31338562 43 56 C40.17920704 53.85565241 40.17920704 53.85565241 37.125 53.375 C33.19769592 51.64698621 31.99748841 49.62898747 29.78515625 46.0703125 C28.85063735 43.60615818 29.11924811 42.43984684 30 40 C32.64752004 42.57784846 34.94432065 44.91648098 37 48 C40.55780196 47.39009109 43.6828589 46.4216319 47 45 C46.96519531 45.56847656 46.93039063 46.13695312 46.89453125 46.72265625 C46.69769408 52.33720226 47.44504683 55.99655005 50 61 C52.475 60.505 52.475 60.505 55 60 C55.33 59.01 55.66 58.02 56 57 C56.66 57 57.32 57 58 57 C58 58.32 58 59.64 58 61 C57.34 61 56.68 61 56 61 C55.814375 61.928125 55.814375 61.928125 55.625 62.875 C55 65 55 65 53 67 C53.25324479 69.9123151 53.61642945 72.28080521 55 74.875 C56 77 56 77 56.1875 80.8125 C56.65239206 85.40115686 58.89474037 87.62222058 62.11328125 90.75 C64.17855513 92.36820541 64.17855513 92.36820541 68 92 C67.65503169 85.10063387 65.92300742 79.8821749 63.05859375 73.6015625 C62 71 62 71 62 68 C63.83203125 68.23046875 63.83203125 68.23046875 66 69 C67.44921875 70.92578125 67.44921875 70.92578125 68.6875 73.3125 C69.10386719 74.09238281 69.52023438 74.87226563 69.94921875 75.67578125 C71.94835163 80.0976551 72.13587446 83.83205406 72.125 88.6875 C72.12886719 90.42580078 72.12886719 90.42580078 72.1328125 92.19921875 C72 95 72 95 71 96 C63.88827203 96.46634282 63.88827203 96.46634282 60.5 94.6875 C59 93 59 93 59 90 C58.01 89.67 57.02 89.34 56 89 C56 88.01 56 87.02 56 86 C55.278125 86.350625 54.55625 86.70125 53.8125 87.0625 C50.53390176 88.15536608 49.27112634 88.01249148 46 87 C44.865625 86.649375 43.73125 86.29875 42.5625 85.9375 C39.37146382 84.55814888 38.02920981 82.87477658 36.125 80 C33.86021045 76.65731595 32.41430559 75.49494055 28.5 74.5 C23.70064222 73.25989749 22.01498678 71.03119219 19.33203125 66.98828125 C16.87474213 63.32036289 13.5286588 60.49177563 10.3125 57.5 C7.94077213 54.93596987 7.02105527 53.29879394 6 50 C5.62875 48.906875 5.2575 47.81375 4.875 46.6875 C3.52442533 40.99579246 3.57047582 35.71809674 5 30 C4.50121338 29.6908667 4.00242676 29.3817334 3.48852539 29.06323242 C0.46326773 26.90233409 -1.67565806 25.28464338 -2.60986328 21.58447266 C-2.76078644 18.79878922 -2.70991812 16.09812813 -2.5625 13.3125 C-2.54767578 12.36310547 -2.53285156 11.41371094 -2.51757812 10.43554688 C-2.32584095 3.48876142 -2.32584095 3.48876142 0 0 Z " fill="#E9BB2F" transform="translate(132,141)"/>
<path d="M0 0 C0.8353125 0.52400391 0.8353125 0.52400391 1.6875 1.05859375 C6.93298776 4.18639304 10.89737784 5.6671297 17 6 C17 10.1464531 16.28749466 12.06030013 14.6875 15.8125 C12.18828845 22.04996881 10.85905086 27.99861981 9.7734375 34.58984375 C8.96621021 38.14898224 7.89081635 40.8824589 6 44 C3 45.3125 3 45.3125 0 46 C-1.485 46.495 -1.485 46.495 -3 47 C-3.79765674 48.84609289 -3.79765674 48.84609289 -4.3125 51 C-5.05078125 53.17578125 -5.05078125 53.17578125 -6 55 C-9 56.1875 -9 56.1875 -12 56 C-13.671875 54.78588867 -13.671875 54.78588867 -15 53 C-15.328125 50.80200195 -15.328125 50.80200195 -15.25 48.23828125 C-15.22131836 47.29162598 -15.19263672 46.3449707 -15.16308594 45.36962891 C-15.10926758 44.36077637 -15.05544922 43.35192383 -15 42.3125 C-14.94875977 41.28044434 -14.89751953 40.24838867 -14.84472656 39.18505859 C-13.90499502 24.71813874 -9.66686501 11.09899316 0 0 Z " fill="#F3C5A8" transform="translate(109,286)"/>
<path d="M0 0 C4.5571235 0.78210783 4.5571235 0.78210783 8.8125 -0.3125 C12.1939981 -0.61307761 14.49141517 -0.43116178 17.6875 0.75 C19.8125 2.6875 19.8125 2.6875 20.1875 6.25 C19.8125 9.6875 19.8125 9.6875 18.8125 11.6875 C18.1525 11.6875 17.4925 11.6875 16.8125 11.6875 C16.86470703 13.04681641 16.86470703 13.04681641 16.91796875 14.43359375 C17.08219235 21.82365553 16.88785022 27.92691997 13.8125 34.6875 C13.30783203 35.80318359 13.30783203 35.80318359 12.79296875 36.94140625 C11.3508185 39.96073954 10.19441068 42.30558932 7.8125 44.6875 C4.9375 45.0625 4.9375 45.0625 1.8125 44.6875 C-5.41683122 38.5981787 -7.54367865 29.41990598 -8.79296875 20.4296875 C-9.69563686 13.9724468 -9.69563686 13.9724468 -13.1875 8.6875 C-13.09786051 5.28119922 -12.45792253 3.96743739 -10.078125 1.50390625 C-6.34450701 -0.84221857 -4.32853207 -0.52453234 0 0 Z " fill="#FAE6D9" transform="translate(86.1875,55.3125)"/>
<path d="M0 0 C2.52734375 1.06640625 2.52734375 1.06640625 4 2 C3.40067598 4.79278909 2.79675828 7.58437214 2.1875 10.375 C2.00662842 11.20555908 1.82575684 12.03611816 1.6394043 12.8918457 C0.71196954 17.07246141 -0.29244833 21.13356273 -1.6875 25.1875 C-3.46309499 30.65825214 -3.54986044 36.27167383 -3.7890625 41.97265625 C-4 45 -4 45 -5 46 C-6.8125 46.1328125 -6.8125 46.1328125 -9 46.125 C-9.721875 46.12757813 -10.44375 46.13015625 -11.1875 46.1328125 C-13 46 -13 46 -14 45 C-14.60088847 35.45565529 -13.59918074 26.39518687 -12 17 C-12.66 17 -13.32 17 -14 17 C-14.20496094 17.83144531 -14.40992188 18.66289062 -14.62109375 19.51953125 C-14.89050781 20.60621094 -15.15992188 21.69289063 -15.4375 22.8125 C-15.70433594 23.89144531 -15.97117188 24.97039062 -16.24609375 26.08203125 C-16.76077412 28.0740843 -17.34937175 30.04811524 -18 32 C-20.475 32.495 -20.475 32.495 -23 33 C-26.46373703 29.03094324 -26.50204996 26.19469879 -26.3515625 21.078125 C-25.73833674 15.7089928 -24.08307696 10.96138263 -22 6 C-21.61328125 4.83791016 -21.61328125 4.83791016 -21.21875 3.65234375 C-17.66576019 -4.05090572 -6.82226197 -1.14494764 0 0 Z " fill="#F3C4A7" transform="translate(178,300)"/>
<path d="M0 0 C-0.66 0.99 -1.32 1.98 -2 3 C-1.34271523 4.93327653 -1.34271523 4.93327653 -0.125 6.9375 C1.81117841 10.87396869 2.18825566 13.68832449 2 18.0625 C1.79456792 23.10842541 2.5580386 26.00545946 5.109375 30.30859375 C6.30779541 32.58454128 6.31520465 34.4783628 6 37 C3.15653528 35.96104174 2.13379601 35.22826187 0.578125 32.57421875 C0.13984375 31.62160156 -0.2984375 30.66898437 -0.75 29.6875 C-3.53963382 24.37324756 -6.14948983 20.8746353 -12 19 C-14.62808585 18.8495975 -17.1623504 18.93251072 -19.7890625 19.08203125 C-22 19 -22 19 -24.625 17.125 C-26 15 -26 15 -26 13 C-26.680625 12.835 -27.36125 12.67 -28.0625 12.5 C-33.08834188 9.93361266 -37.20973991 5.37078028 -39 0 C-38.0821875 0.16113281 -37.164375 0.32226562 -36.21875 0.48828125 C-30.99398817 1.23073357 -25.76793497 1.18412744 -20.5 1.1875 C-18.98986328 1.20586914 -18.98986328 1.20586914 -17.44921875 1.22460938 C-12.87987851 1.23359235 -3.57246934 -1.78623467 0 0 Z " fill="#A9B62F" transform="translate(247,352)"/>
<path d="M0 0 C1.32 0 2.64 0 4 0 C7.54901993 6.27416023 8.16578289 10.99045776 7.875 18.1328125 C8.03684199 21.84506321 9.2447471 24.16367556 11.109375 27.30859375 C12.30779541 29.58454128 12.31520465 31.4783628 12 34 C9.15653528 32.96104174 8.13379601 32.22826187 6.578125 29.57421875 C6.13984375 28.62160156 5.7015625 27.66898437 5.25 26.6875 C2.46036618 21.37324756 -0.14948983 17.8746353 -6 16 C-8.62808585 15.8495975 -11.1623504 15.93251072 -13.7890625 16.08203125 C-16 16 -16 16 -18.625 14.125 C-20 12 -20 12 -20 10 C-17.69 10 -15.38 10 -13 10 C-13.33 7.03 -13.66 4.06 -14 1 C-9.28217008 2.17945748 -8.96097818 3.00268056 -6.4375 6.9375 C-4.37111129 10.13603041 -3.20642013 11.86238658 0 14 C0.99 14 1.98 14 3 14 C2.87625 12.741875 2.7525 11.48375 2.625 10.1875 C2.55539063 9.47980469 2.48578125 8.77210938 2.4140625 8.04296875 C2.07334609 5.70011858 2.07334609 5.70011858 0 3 C0 2.01 0 1.02 0 0 Z " fill="#231A0D" transform="translate(241,355)"/>
<path d="M0 0 C0.33 0 0.66 0 1 0 C1.12375 0.94875 1.2475 1.8975 1.375 2.875 C1.71687177 6.08667191 1.71687177 6.08667191 4 8 C3.67 8.33 3.34 8.66 3 9 C2.60939817 12.38422516 2.58173985 15.7839434 2.5 19.1875 C2.44585937 20.13431641 2.39171875 21.08113281 2.3359375 22.05664062 C2.17109269 27.41670995 2.17109269 27.41670995 4.59375 32.01416016 C6.33114407 33.50416822 8.05290104 34.80064985 10 36 C9.835 36.66 9.67 37.32 9.5 38 C8.20861679 45.74829924 9.11615856 52.69273643 12 60 C14.33850201 62.89235775 16.68279992 64.75832375 19.625 67 C22.16074553 69.13536466 23.52394741 71.04789481 25 74 C25 74.66 25 75.32 25 76 C24.34 76 23.68 76 23 76 C23 75.34 23 74.68 23 74 C22.34 74 21.68 74 21 74 C19.4140625 72.42578125 19.4140625 72.42578125 17.625 70.3125 C16.74714844 69.28576172 16.74714844 69.28576172 15.8515625 68.23828125 C15.24054688 67.49964844 14.62953125 66.76101562 14 66 C13.31808594 65.20980469 12.63617188 64.41960937 11.93359375 63.60546875 C9.86534868 60.81856074 8.68609942 58.23069949 7.4375 55 C6.28813808 52.0455746 5.21932191 49.34456626 3.515625 46.66796875 C1.45495908 43.04055941 0.41118964 39.32134486 -0.6875 35.3125 C-0.90809082 34.51392578 -1.12868164 33.71535156 -1.35595703 32.89257812 C-4.83399269 19.66798539 -4.83399269 19.66798539 -2 14 C-1.61076473 11.63049479 -1.2619422 9.2542428 -0.9375 6.875 C-0.76089844 5.59367188 -0.58429688 4.31234375 -0.40234375 2.9921875 C-0.26957031 2.00476563 -0.13679688 1.01734375 0 0 Z " fill="#3E3D2E" transform="translate(128,135)"/>
<path d="M0 0 C4.5571235 0.78210783 4.5571235 0.78210783 8.8125 -0.3125 C12.1939981 -0.61307761 14.49141517 -0.43116178 17.6875 0.75 C19.8125 2.6875 19.8125 2.6875 20.1875 6.25 C19.8125 9.6875 19.8125 9.6875 18.8125 11.6875 C15.77525791 11.26369878 13.17159754 10.85323732 10.375 9.5625 C5.65694085 7.95145541 1.4964094 9.28124553 -2.875 11.3125 C-6.1875 12.6875 -6.1875 12.6875 -8.4375 12.5625 C-10.59350305 11.48449847 -11.82268768 10.69880237 -13.1875 8.6875 C-13.1875 5.23995157 -12.47775796 3.98687882 -10.07421875 1.5078125 C-6.34319159 -0.84490557 -4.32945629 -0.52464433 0 0 Z " fill="#6AA8D3" transform="translate(86.1875,55.3125)"/>
<path d="M0 0 C0 0.99 0 1.98 0 3 C-1.051875 3.45375 -2.10375 3.9075 -3.1875 4.375 C-8.9734702 7.62594066 -10.99150605 13.97451815 -13 20 C-13.76989498 26.99216095 -12.95363394 33.06323338 -9 39 C-6.38142305 40.78962819 -6.38142305 40.78962819 -4 42 C-4 43.32 -4 44.64 -4 46 C-8.35184119 45.6891542 -11.41291894 44.69269257 -14.67578125 41.6953125 C-19.71681809 35.24159572 -19.92420406 25.79412089 -19 18 C-17.04841616 10.45597431 -13.82980456 5.77660831 -7.5 1.1875 C-4.76277529 -0.11268174 -2.99179977 -0.25643998 0 0 Z " fill="#221410" transform="translate(240,308)"/>
<path d="M0 0 C2.64 0.33 5.28 0.66 8 1 C8.2475 1.78375 8.495 2.5675 8.75 3.375 C9.87480325 6.80088993 9.87480325 6.80088993 10.98828125 9.23828125 C13.74240798 15.51769021 14.73991283 21.15970734 15 28 C13.68 28 12.36 28 11 28 C9.04296875 25.76953125 9.04296875 25.76953125 7.1875 22.8125 C6.56230469 21.84957031 5.93710938 20.88664062 5.29296875 19.89453125 C3.81620831 16.58855094 4.1330629 15.40374634 5 12 C3.67744688 10.32476605 2.34294481 8.65893182 1 7 C0.25 3.1875 0.25 3.1875 0 0 Z " fill="#3F3D36" transform="translate(213,238)"/>
<path d="M0 0 C0.99 0 1.98 0 3 0 C1.77444878 10.31153441 -2.45621337 16.19090232 -10.2890625 22.7734375 C-13.28663755 24.922384 -15.26390177 26 -19 26 C-18.68974849 22.97167546 -18.11453908 22.09650611 -15.7421875 20.09765625 C-14.79601562 19.42605469 -13.84984375 18.75445312 -12.875 18.0625 C-6.32066703 12.95234209 -3.37660265 7.45618402 0 0 Z " fill="#251D0B" transform="translate(132,216)"/>
<path d="M0 0 C0.66 1.32 1.32 2.64 2 4 C2.53625 4.969375 3.0725 5.93875 3.625 6.9375 C4.98795467 9.97317175 5.28832645 11.73230026 5 15 C3.375 15.8125 3.375 15.8125 1 16 C-4.93718951 12.25698922 -7.61322577 7.04781112 -11 1 C-5.555 0.505 -5.555 0.505 0 0 Z " fill="#A8BA2E" transform="translate(240,354)"/>
<path d="M0 0 C-0.21228391 1.98131646 -0.42898549 3.96220453 -0.66015625 5.94140625 C-0.92488193 8.32393738 -1.15558273 10.70277131 -1.37109375 13.08984375 C-1.51765353 14.53912083 -1.66479211 15.98833949 -1.8125 17.4375 C-1.87034668 18.14777344 -1.92819336 18.85804688 -1.98779297 19.58984375 C-2.20703125 21.62109375 -2.20703125 21.62109375 -3 25 C-5.07421875 26.47265625 -5.07421875 26.47265625 -7 27 C-8.88479142 25.11520858 -8.21774624 22.01579362 -8.25 19.5 C-8.20341719 12.9717517 -7.92124767 6.42996099 -3.51953125 1.26171875 C-2 0 -2 0 0 0 Z " fill="#2D1E18" transform="translate(111,301)"/>
<path d="M0 0 C3.05526817 0.30552682 3.91374561 0.89750743 5.9296875 3.29296875 C6.57164062 4.24816406 7.21359375 5.20335937 7.875 6.1875 C10.95392552 10.6156176 14.04785396 14.34426491 18 18 C17.67 18.99 17.34 19.98 17 21 C14.75390625 21.28515625 14.75390625 21.28515625 12 21 C7.00203517 16.37432306 2.94274138 10.13071121 0 4 C0 2.68 0 1.36 0 0 Z " fill="#28200D" transform="translate(150,276)"/>
<path d="M0 0 C3 -0.3125 3 -0.3125 6 0 C8 2 8 2 8.375 5.375 C8 9 8 9 6.3125 11.5 C4 13 4 13 1.375 12.9375 C-1 12 -1 12 -3 9 C-2.68074747 5.16896958 -2.15546298 3.23319447 0 0 Z " fill="#261910" transform="translate(57,65)"/>
<path d="M0 0 C2.375 0.75 2.375 0.75 3.375 1.75 C3.4995486 3.39230364 3.55068524 5.04052276 3.5625 6.6875 C3.57667969 7.58339844 3.59085938 8.47929688 3.60546875 9.40234375 C3.375 11.75 3.375 11.75 1.375 13.75 C-1.70330123 13.5921384 -3.19679128 13.13538785 -5.5 11.0625 C-7.04989 7.876615 -6.62356087 6.10231148 -5.625 2.75 C-3.85323721 0.00376768 -3.29281552 -0.31360148 0 0 Z " fill="#281C11" transform="translate(121.625,62.25)"/>
<path d="M0 0 C-2.35576923 8.75 -2.35576923 8.75 -4 11 C-6.375 12 -6.375 12 -9 12 C-11.375 10.375 -11.375 10.375 -13 8 C-13.08821763 4.4712949 -12.22604911 3.25264313 -9.875 0.625 C-6.15381172 -1.47828033 -4.07651571 -0.95918017 0 0 Z " fill="#71AAC7" transform="translate(86,56)"/>
<path d="M0 0 C0.99 0.33 1.98 0.66 3 1 C3.33 3.97 3.66 6.94 4 10 C7.19902639 10.08886184 9.92677456 9.91058531 13 9 C12.125 13.875 12.125 13.875 11 15 C7.75 15.375 7.75 15.375 4 15 C1.125 12.5625 1.125 12.5625 -1 10 C-1.33 9.67 -1.66 9.34 -2 9 C-2.1875 5.5625 -2.1875 5.5625 -2 2 C-1.34 1.34 -0.68 0.68 0 0 Z " fill="#E4B72F" transform="translate(144,121)"/>
<path d="M0 0 C3.24827183 1.39718243 5.11379455 2.98573105 7.375 5.6875 C7.97183594 6.39261719 8.56867188 7.09773438 9.18359375 7.82421875 C9.78300781 8.54222656 10.38242188 9.26023437 11 10 C12.14432479 11.33462826 13.29003405 12.66807144 14.4375 14 C15.283125 14.99 16.12875 15.98 17 17 C16.67 17.66 16.34 18.32 16 19 C7.95688383 16.24236017 2.96594459 10.37764226 -1 3 C-0.67 2.01 -0.34 1.02 0 0 Z " fill="#28210B" transform="translate(94,267)"/>
<path d="M0 0 C2.95399506 1.35153828 5.23557476 2.8967985 7.671875 5.0390625 C8.33574219 5.61914062 8.99960937 6.19921875 9.68359375 6.796875 C10.36550781 7.40015625 11.04742187 8.0034375 11.75 8.625 C12.44738281 9.23601562 13.14476562 9.84703125 13.86328125 10.4765625 C15.5788674 11.98063803 17.29093409 13.48852498 19 15 C15.23681641 16.08935547 15.23681641 16.08935547 13.10546875 15.28515625 C7.91609062 11.97705981 3.45076652 8.15458249 0 3 C0 2.01 0 1.02 0 0 Z " fill="#251D0A" transform="translate(46,229)"/>
<path d="M0 0 C3.6666874 0.35947916 5.45515367 0.82124305 8.1875 3.3125 C8.5482834 6.73994229 8.74688978 9.19372044 7.1875 12.3125 C5.8675 12.3125 4.5475 12.3125 3.1875 12.3125 C2.1975 9.3425 1.2075 6.3725 0.1875 3.3125 C-1.4625 2.9825 -3.1125 2.6525 -4.8125 2.3125 C-2.8125 0.3125 -2.8125 0.3125 0 0 Z " fill="#73A9BD" transform="translate(97.8125,54.6875)"/>
<path d="M0 0 C4.67248931 2.82522609 7.65996398 5.67760044 11 10 C10.34 10.66 9.68 11.32 9 12 C9 11.34 9 10.68 9 10 C8.443125 10.350625 7.88625 10.70125 7.3125 11.0625 C5 12 5 12 0 11 C0 7.37 0 3.74 0 0 Z " fill="#474238" transform="translate(148,120)"/>
<path d="M0 0 C1.9375 0.6875 1.9375 0.6875 4 2 C4.75 4.625 4.75 4.625 5 7 C7.62901288 5.47793991 9.84365964 4.15634036 12 2 C12.66 3.32 13.32 4.64 14 6 C12.3125 8.0625 12.3125 8.0625 10 10 C6.33441444 10.09398937 5.03001765 9.02468118 2.1875 6.6875 C0 4 0 4 0 0 Z " fill="#D5B435" transform="translate(164,151)"/>
<path d="M0 0 C0.33 0 0.66 0 1 0 C1.08636719 0.59167969 1.17273438 1.18335938 1.26171875 1.79296875 C2.5041133 8.78001333 4.96056346 11.68423882 10.625 16 C13.16074553 18.13536466 14.52394741 20.04789481 16 23 C16 23.66 16 24.32 16 25 C15.34 25 14.68 25 14 25 C14 24.34 14 23.68 14 23 C13.34 23 12.68 23 12 23 C9.48161322 20.50022199 7.27615934 17.72016352 5 15 C4.2575 14.175 3.515 13.35 2.75 12.5 C0.41620675 9.16600965 -0.69448594 5.85126648 -2 2 C-1.34 1.34 -0.68 0.68 0 0 Z " fill="#49431D" transform="translate(137,186)"/>
<path d="M0 0 C2.33944736 0.28730055 4.6739143 0.61936779 7 1 C7.625 3.375 7.625 3.375 8 6 C7.34 6.66 6.68 7.32 6 8 C2.875 7.625 2.875 7.625 0 7 C-0.38133299 5.0085944 -0.71325582 3.00720923 -1 1 C-0.67 0.67 -0.34 0.34 0 0 Z " fill="#2A1C0F" transform="translate(64,114)"/>
<path d="M0 0 C2.91792927 2.62613634 4.84868279 5.73832552 7 9 C7.66 9.66 8.32 10.32 9 11 C8.34 11 7.68 11 7 11 C6.67 11.99 6.34 12.98 6 14 C3 11 0 8 -3 5 C-2.01 3.35 -1.02 1.7 0 0 Z " fill="#3E3C28" transform="translate(211,240)"/>
<path d="M0 0 C0.8353125 1.0828125 0.8353125 1.0828125 1.6875 2.1875 C3.96384038 5.04880285 3.96384038 5.04880285 6.625 7.625 C9 10 9 10 11 13 C5.19657726 11.51194289 0.82409121 8.40902445 -4 5 C-3.01 4.67 -2.02 4.34 -1 4 C-0.26676204 1.98491642 -0.26676204 1.98491642 0 0 Z " fill="#A9B93B" transform="translate(94,271)"/>
<path d="M0 0 C3.13498176 1.08102819 3.9868559 1.97840612 5.75 4.875 C7 8 7 8 7 12 C3.16674584 10.54600704 1.71720395 8.6919885 0 5 C-0.1875 2.1875 -0.1875 2.1875 0 0 Z " fill="#E7B931" transform="translate(213,238)"/>
<path d="M0 0 C2.125 0.375 2.125 0.375 4 1 C4.625 3.375 4.625 3.375 5 6 C4.34 6.66 3.68 7.32 3 8 C0.375 7.625 0.375 7.625 -2 7 C-2.125 4.625 -2.125 4.625 -2 2 C-1.34 1.34 -0.68 0.68 0 0 Z " fill="#25180B" transform="translate(114,110)"/>
<path d="M0 0 C1.67542976 0.28604898 3.34385343 0.61781233 5 1 C5 2.98 5 4.96 5 7 C3.02 7.99 3.02 7.99 1 9 C-1 7 -1 7 -1.1875 3.9375 C-1 1 -1 1 0 0 Z " fill="#1E130A" transform="translate(61,101)"/>
<path d="M0 0 C0.99 0 1.98 0 3 0 C3 1.98 3 3.96 3 6 C2.01 6.33 1.02 6.66 0 7 C-0.33 12.61 -0.66 18.22 -1 24 C-1.33 24 -1.66 24 -2 24 C-2.05802698 20.56257082 -2.09360486 17.12526747 -2.125 13.6875 C-2.14175781 12.71103516 -2.15851563 11.73457031 -2.17578125 10.72851562 C-2.18222656 9.79072266 -2.18867188 8.85292969 -2.1953125 7.88671875 C-2.20578613 7.02264404 -2.21625977 6.15856934 -2.22705078 5.26831055 C-2 3 -2 3 0 0 Z " fill="#D1AF39" transform="translate(132,141)"/>
<path d="M0 0 C0.99 0.33 1.98 0.66 3 1 C3 3.31 3 5.62 3 8 C1.34385343 8.38218767 -0.32457024 8.71395102 -2 9 C-3 8 -3 8 -3.25 5.625 C-3 3 -3 3 -1.5 1.1875 C-1.005 0.795625 -0.51 0.40375 0 0 Z " fill="#2F1F0D" transform="translate(125,96)"/>
<path d="M0 0 C0.33 0 0.66 0 1 0 C1.02187378 0.83192871 1.02187378 0.83192871 1.04418945 1.68066406 C1.11886897 4.20446242 1.21546025 6.72696654 1.3125 9.25 C1.33505859 10.12269531 1.35761719 10.99539062 1.38085938 11.89453125 C1.55443721 18.0532778 1.55443721 18.0532778 5 23 C4.34 23.33 3.68 23.66 3 24 C2.34 23.34 1.68 22.68 1 22 C0.67 23.65 0.34 25.3 0 27 C-0.33 27 -0.66 27 -1 27 C-1.33 23.7 -1.66 20.4 -2 17 C-1.67 17 -1.34 17 -1 17 C-0.67 11.39 -0.34 5.78 0 0 Z " fill="#433D20" transform="translate(129,146)"/>
<path d="M0 0 C0.33 0 0.66 0 1 0 C1.04898438 1.16917969 1.09796875 2.33835938 1.1484375 3.54296875 C1.22350171 5.09116804 1.29904795 6.63934401 1.375 8.1875 C1.4059375 8.95642578 1.436875 9.72535156 1.46875 10.51757812 C1.68616111 14.73897711 2.09743072 18.14072328 4 22 C3.34 22.33 2.68 22.66 2 23 C1.67 22.34 1.34 21.68 1 21 C0.34 21.66 -0.32 22.32 -1 23 C-1.66 20.69 -2.32 18.38 -3 16 C-2.34 16.33 -1.68 16.66 -1 17 C-0.67 11.39 -0.34 5.78 0 0 Z " fill="#CEAA2F" transform="translate(141,173)"/>
<path d="M0 0 C3 0.1875 3 0.1875 5 1.1875 C5 2.8375 5 4.4875 5 6.1875 C3.35 5.8575 1.7 5.5275 0 5.1875 C0 4.5275 0 3.8675 0 3.1875 C-1.65 2.8575 -3.3 2.5275 -5 2.1875 C-3 0.1875 -3 0.1875 0 0 Z " fill="#6EA2BD" transform="translate(98,54.8125)"/>
<path d="M0 0 C0.598125 0.20625 1.19625 0.4125 1.8125 0.625 C1.8125 1.945 1.8125 3.265 1.8125 4.625 C-0.8275 5.285 -3.4675 5.945 -6.1875 6.625 C-5.875 4.25 -5.875 4.25 -5.1875 1.625 C-2.1875 -0.375 -2.1875 -0.375 0 0 Z " fill="#79A1AE" transform="translate(79.1875,57.375)"/>
<path d="M0 0 C-2.41831226 2.81838686 -2.93662625 2.99055731 -6.90625 3.58203125 C-8.4366926 3.67353952 -9.96810495 3.74984319 -11.5 3.8125 C-12.27214844 3.86341797 -13.04429687 3.91433594 -13.83984375 3.96679688 C-17.80402152 4.16947147 -19.61839546 4.25440303 -23 2 C-21.60587891 1.92652344 -21.60587891 1.92652344 -20.18359375 1.8515625 C-15.31775208 1.55727802 -4.03004662 -2.01502331 0 0 Z " fill="#A49E31" transform="translate(247,352)"/>
<path d="M0 0 C1.32 0 2.64 0 4 0 C7 5.75 7 5.75 7 8 C5.68 8.33 4.36 8.66 3 9 C0 3.375 0 3.375 0 0 Z " fill="#28220B" transform="translate(241,355)"/>
<path d="M0 0 C5.94 0 11.88 0 18 0 C18 0.66 18 1.32 18 2 C18.99 2.33 19.98 2.66 21 3 C13.25 3.125 13.25 3.125 11 2 C9.12943209 1.7724985 7.25314042 1.59037189 5.375 1.4375 C4.37210938 1.35371094 3.36921875 1.26992188 2.3359375 1.18359375 C1.56507813 1.12300781 0.79421875 1.06242187 0 1 C0 0.67 0 0.34 0 0 Z " fill="#A77869" transform="translate(157,346)"/>
<path d="M0 0 C0.66 0 1.32 0 2 0 C2 2.97 2 5.94 2 9 C0.68 9 -0.64 9 -2 9 C-3 6 -3 6 -1.5625 2.8125 C-1.046875 1.884375 -0.53125 0.95625 0 0 Z " fill="#92503B" transform="translate(164,317)"/>
<path d="M0 0 C0.99 0.33 1.98 0.66 3 1 C2.67 5.62 2.34 10.24 2 15 C1.34 15 0.68 15 0 15 C0 10.05 0 5.1 0 0 Z " fill="#F5BF2C" transform="translate(131,147)"/>
<path d="M0 0 C2.90883109 1.40896506 5.57299378 2.84975764 8 5 C8.5 8.8125 8.5 8.8125 8 12 C6.66666667 10.33333333 5.33333333 8.66666667 4 7 C3.2575 6.113125 2.515 5.22625 1.75 4.3125 C0 2 0 2 0 0 Z " fill="#AFBF48" transform="translate(213,360)"/>
<path d="M0 0 C0.33 0.66 0.66 1.32 1 2 C0.67 2.66 0.34 3.32 0 4 C-1.98 4 -3.96 4 -6 4 C-6.33 3.01 -6.66 2.02 -7 1 C-4.53721199 -0.231394 -2.7204945 -0.07159196 0 0 Z " fill="#69AAD2" transform="translate(81,62)"/>
<path d="M0 0 C2.31 0.33 4.62 0.66 7 1 C7.33 1.99 7.66 2.98 8 4 C6.35 4.66 4.7 5.32 3 6 C2.01 4.02 1.02 2.04 0 0 Z " fill="#B0BD35" transform="translate(208,352)"/>
<path d="M0 0 C0.99 0 1.98 0 3 0 C4.1875 3.25 4.1875 3.25 5 7 C4.01 8.32 3.02 9.64 2 11 C1.01 7.7 0.02 4.4 -1 1 C-0.67 0.67 -0.34 0.34 0 0 Z " fill="#494534" transform="translate(218,239)"/>
<path d="M0 0 C0.99 0 1.98 0 3 0 C3.33 2.31 3.66 4.62 4 7 C3.67 6.01 3.34 5.02 3 4 C2.34 4 1.68 4 1 4 C1 5.98 1 7.96 1 10 C0.67 10 0.34 10 0 10 C-0.19412181 8.52168779 -0.38012131 7.04230684 -0.5625 5.5625 C-0.66691406 4.73878906 -0.77132812 3.91507813 -0.87890625 3.06640625 C-0.91886719 2.38449219 -0.95882812 1.70257813 -1 1 C-0.67 0.67 -0.34 0.34 0 0 Z " fill="#D5B131" transform="translate(143,151)"/>
<path d="M0 0 C0.99 0 1.98 0 3 0 C3 1.98 3 3.96 3 6 C0 6 0 6 -2 5 C-1.34 3.35 -0.68 1.7 0 0 Z " fill="#DDB330" transform="translate(151,186)"/>
<path d="M0 0 C0.33 0 0.66 0 1 0 C1.12375 0.94875 1.2475 1.8975 1.375 2.875 C1.71687177 6.08667191 1.71687177 6.08667191 4 8 C2.625 9.5 2.625 9.5 1 11 C0.34 11 -0.32 11 -1 11 C-0.67 7.37 -0.34 3.74 0 0 Z " fill="#4E4F28" transform="translate(128,135)"/>
<path d="M0 0 C0.33 0 0.66 0 1 0 C1.22151549 1.79008467 1.42682213 3.58218162 1.625 5.375 C1.74101562 6.37273437 1.85703125 7.37046875 1.9765625 8.3984375 C1.98429687 9.25695312 1.99203125 10.11546875 2 11 C1.34 11.66 0.68 12.32 0 13 C-0.69748583 14.31747324 -1.36959957 15.64914193 -2 17 C-1.855625 16.05125 -1.71125 15.1025 -1.5625 14.125 C-0.88802722 9.43259653 -0.44623104 4.71865588 0 0 Z " fill="#F4E6DA" transform="translate(256,326)"/>
<path d="M0 0 C1.9375 0.8125 1.9375 0.8125 4 2 C4.33 2.99 4.66 3.98 5 5 C4.01 5.33 3.02 5.66 2 6 C1.01 5.34 0.02 4.68 -1 4 C-0.67 2.68 -0.34 1.36 0 0 Z " fill="#322B0E" transform="translate(106,280)"/>
<path d="M0 0 C0.33 0 0.66 0 1 0 C1.33730842 1.43657245 1.66969591 2.87430093 2 4.3125 C2.185625 5.11300781 2.37125 5.91351563 2.5625 6.73828125 C3 9 3 9 3 12 C0.35534962 8.8745041 -0.84414715 5.91211733 -2 2 C-1.34 1.34 -0.68 0.68 0 0 Z " fill="#574F23" transform="translate(137,186)"/>
<path d="M0 0 C0.66 0 1.32 0 2 0 C2.66 1.98 3.32 3.96 4 6 C3.38125 6.144375 2.7625 6.28875 2.125 6.4375 C-0.03258322 6.93152225 -0.03258322 6.93152225 -2 8 C-1.34 5.36 -0.68 2.72 0 0 Z " fill="#B6C23A" transform="translate(138,107)"/>
<path d="M0 0 C1.8125 0.125 1.8125 0.125 4 1 C5.75 4.0625 5.75 4.0625 7 7 C4.08482708 5.92598892 2.22189824 5.22189824 0 3 C0 2.01 0 1.02 0 0 Z " fill="#272007" transform="translate(214,358)"/>
<path d="M0 0 C0.33 0 0.66 0 1 0 C1.33 3.63 1.66 7.26 2 11 C1.01 11.495 1.01 11.495 0 12 C-0.99 10.02 -1.98 8.04 -3 6 C-2.34 6 -1.68 6 -1 6 C-0.67 4.02 -0.34 2.04 0 0 Z " fill="#3F3B1F" transform="translate(135,176)"/>
<path d="M0 0 C1.32 0.33 2.64 0.66 4 1 C4 1.99 4 2.98 4 4 C3.67 4 3.34 4 3 4 C2.67 5.98 2.34 7.96 2 10 C1.67 10 1.34 10 1 10 C0.67 6.7 0.34 3.4 0 0 Z " fill="#494728" transform="translate(252,391)"/>
<path d="M0 0 C1.14926266 0.95421808 2.29430541 1.91352045 3.4375 2.875 C4.07558594 3.40867188 4.71367188 3.94234375 5.37109375 4.4921875 C7 6 7 6 8 8 C7.34 8.66 6.68 9.32 6 10 C4.99421411 8.71283353 3.99553202 7.42011342 3 6.125 C2.443125 5.40570313 1.88625 4.68640625 1.3125 3.9453125 C0 2 0 2 0 0 Z " fill="#A6B54D" transform="translate(47,234)"/>
<path d="M0 0 C2.8125 -0.3125 2.8125 -0.3125 6 0 C7.875 2.5 7.875 2.5 9 5 C5.54074837 3.7508258 2.85306797 2.32472205 0 0 Z " fill="#4B441A" transform="translate(159,216)"/>
<path d="M0 0 C0.66 0.33 1.32 0.66 2 1 C2 2.98 2 4.96 2 7 C0.02 7.99 0.02 7.99 -2 9 C-2.66 8.01 -3.32 7.02 -4 6 C-2.68 5.67 -1.36 5.34 0 5 C0 3.35 0 1.7 0 0 Z " fill="#37260F" transform="translate(64,101)"/>
<path d="M0 0 C2.09749995 2.35968744 2.96905704 3.54616994 3.1875 6.75 C3.125625 7.4925 3.06375 8.235 3 9 C2.01 8.67 1.02 8.34 0 8 C0.33 6.35 0.66 4.7 1 3 C0.34 2.67 -0.32 2.34 -1 2 C-0.67 1.34 -0.34 0.68 0 0 Z " fill="#2A220B" transform="translate(250,380)"/>
<path d="M0 0 C0.99 0.99 1.98 1.98 3 3 C2.34 4.32 1.68 5.64 1 7 C0.01 6.01 -0.98 5.02 -2 4 C-1.34 2.68 -0.68 1.36 0 0 Z " fill="#CEB043" transform="translate(175,153)"/>
<path d="M0 0 C2.64 0 5.28 0 8 0 C6.8125 1.5625 6.8125 1.5625 5 3 C2.3125 2.6875 2.3125 2.6875 0 2 C0 1.34 0 0.68 0 0 Z " fill="#2F200B" transform="translate(56,75)"/>
<path d="M0 0 C1.42944945 2.35438733 2.08661261 3.48032433 1.625 6.25 C1.41875 6.8275 1.2125 7.405 1 8 C0.01 6.68 -0.98 5.36 -2 4 C-1.34 2.68 -0.68 1.36 0 0 Z " fill="#20160B" transform="translate(249,379)"/>
<path d="M0 0 C1.98 0.99 1.98 0.99 4 2 C3.34 3.65 2.68 5.3 2 7 C0 5 0 5 -0.125 2.375 C-0.08375 1.59125 -0.0425 0.8075 0 0 Z " fill="#D7AE31" transform="translate(213,238)"/>
<path d="M0 0 C1.80411967 2.75924185 2.0127245 3.88972103 1.625 7.25 C1.41875 8.1575 1.2125 9.065 1 10 C0.34 9.34 -0.32 8.68 -1 8 C-0.96712417 5.27130593 -0.43602229 2.7033382 0 0 Z " fill="#5B4E26" transform="translate(179,187)"/>
<path d="M0 0 C0.33 0.99 0.66 1.98 1 3 C-0.65 3.33 -2.3 3.66 -4 4 C-4.33 3.01 -4.66 2.02 -5 1 C-2 0 -2 0 0 0 Z " fill="#ECBD34" transform="translate(174,157)"/>
<path d="M0 0 C0.66 0 1.32 0 2 0 C1.43628586 3.26954202 0.50037734 4.82575883 -2 7 C-2.33 5.68 -2.66 4.36 -3 3 C-2.34 3 -1.68 3 -1 3 C-0.67 2.01 -0.34 1.02 0 0 Z " fill="#A6B431" transform="translate(135,118)"/>
<path d="M0 0 C2.625 0.375 2.625 0.375 5 1 C5 1.99 5 2.98 5 4 C2.69 3.34 0.38 2.68 -2 2 C-1.34 1.34 -0.68 0.68 0 0 Z " fill="#7BABD0" transform="translate(96,62)"/>
<path d="M0 0 C1.98 0.495 1.98 0.495 4 1 C4 1.99 4 2.98 4 4 C2.35 3.67 0.7 3.34 -1 3 C-0.67 2.01 -0.34 1.02 0 0 Z " fill="#1A1E22" transform="translate(99,57)"/>
<path d="M0 0 C1.98 0.495 1.98 0.495 4 1 C3.67 1.99 3.34 2.98 3 4 C1.68 4 0.36 4 -1 4 C-0.67 2.68 -0.34 1.36 0 0 Z " fill="#252730" transform="translate(77,57)"/>
<path d="M0 0 C0 3.99904969 -1.72586967 5.80200422 -4 9 C-4.66 8.67 -5.32 8.34 -6 8 C-2.25 2.25 -2.25 2.25 0 0 Z " fill="#EFD66D" transform="translate(61,30)"/>
</svg>
